M48
INCH,TZ
T1C0.0197
T2C0.0394
T3C0.0398
T4C0.0402
T5C0.0413
%
G90
G05
T1
X72400Y-40375
T2
X75000Y-26000
X75000Y-27900
X75000Y-29800
X75000Y-31700
X75000Y-33550
T3
X68950Y-35050
X68950Y-38575
X71400Y-28550
T4
X77800Y-26500
X77800Y-27500
X77800Y-28500
X77800Y-29500
X77800Y-30500
X77800Y-31500
X77800Y-32500
X77800Y-33500
X77800Y-34500
X77800Y-35500
X77800Y-36500
X77800Y-37500
X77800Y-38500
X77800Y-39500
X77800Y-40500
X77800Y-41500
X77800Y-42500
X77800Y-43500
X77800Y-44500
X77800Y-45500
X78800Y-26500
X78800Y-27500
X78800Y-28500
X78800Y-29500
X78800Y-30500
X78800Y-31500
X78800Y-32500
X78800Y-33500
X78800Y-34500
X78800Y-35500
X78800Y-36500
X78800Y-37500
X78800Y-38500
X78800Y-39500
X78800Y-40500
X78800Y-41500
X78800Y-42500
X78800Y-43500
X78800Y-44500
X78800Y-45500
T5
X70600Y-31500
X70600Y-32681
X70600Y-33862
X70600Y-35043
X70600Y-36224
X70600Y-37406
X70600Y-38587
X70600Y-39768
X71781Y-31500
X71781Y-32681
X71781Y-33862
X71781Y-35043
X71781Y-36224
X71781Y-37406
X71781Y-38587
X71781Y-39768
T0
M30
