%TF.GenerationSoftware,KiCad,Pcbnew,(5.1.10)-1*%
%TF.CreationDate,2021-05-26T15:53:11-05:00*%
%TF.ProjectId,IAQ RPI PCB Rev 1,49415120-5250-4492-9050-434220526576,1*%
%TF.SameCoordinates,Original*%
%TF.FileFunction,Copper,L1,Top*%
%TF.FilePolarity,Positive*%
%FSLAX46Y46*%
G04 Gerber Fmt 4.6, Leading zero omitted, Abs format (unit mm)*
G04 Created by KiCad (PCBNEW (5.1.10)-1) date 2021-05-26 15:53:11*
%MOMM*%
%LPD*%
G01*
G04 APERTURE LIST*
%TA.AperFunction,SMDPad,CuDef*%
%ADD10R,1.200000X0.900000*%
%TD*%
%TA.AperFunction,ComponentPad*%
%ADD11C,1.550000*%
%TD*%
%TA.AperFunction,ComponentPad*%
%ADD12R,1.575000X1.575000*%
%TD*%
%TA.AperFunction,ComponentPad*%
%ADD13C,1.575000*%
%TD*%
%TA.AperFunction,ComponentPad*%
%ADD14C,2.000000*%
%TD*%
%TA.AperFunction,ViaPad*%
%ADD15C,2.030000*%
%TD*%
%TA.AperFunction,ViaPad*%
%ADD16C,0.700000*%
%TD*%
%TA.AperFunction,Conductor*%
%ADD17C,0.250000*%
%TD*%
%TA.AperFunction,Conductor*%
%ADD18C,0.400000*%
%TD*%
%TA.AperFunction,Conductor*%
%ADD19C,0.350000*%
%TD*%
G04 APERTURE END LIST*
D10*
%TO.P,D1,2*%
%TO.N,Net-(D1-Pad2)*%
X188214000Y-113030000D03*
%TO.P,D1,1*%
%TO.N,GND*%
X186014000Y-113030000D03*
%TD*%
%TO.P,D2,1*%
%TO.N,GND*%
X186014000Y-110490000D03*
%TO.P,D2,2*%
%TO.N,Net-(D2-Pad2)*%
X188214000Y-110490000D03*
%TD*%
%TO.P,D3,2*%
%TO.N,Net-(D3-Pad2)*%
X188214000Y-107950000D03*
%TO.P,D3,1*%
%TO.N,GND*%
X186014000Y-107950000D03*
%TD*%
%TO.P,D4,2*%
%TO.N,Net-(D4-Pad2)*%
X188255000Y-105410000D03*
%TO.P,D4,1*%
%TO.N,GND*%
X186055000Y-105410000D03*
%TD*%
%TO.P,D5,1*%
%TO.N,GND*%
X186014000Y-102870000D03*
%TO.P,D5,2*%
%TO.N,Net-(D5-Pad2)*%
X188214000Y-102870000D03*
%TD*%
D11*
%TO.P,J1,1*%
%TO.N,Net-(J1-Pad1)*%
X197612000Y-67310000D03*
%TO.P,J1,2*%
%TO.N,VCC*%
X200152000Y-67310000D03*
%TO.P,J1,3*%
%TO.N,Net-(J1-Pad3)*%
X197612000Y-69850000D03*
%TO.P,J1,4*%
%TO.N,Net-(J1-Pad4)*%
X200152000Y-69850000D03*
%TO.P,J1,5*%
%TO.N,Net-(J1-Pad5)*%
X197612000Y-72390000D03*
%TO.P,J1,6*%
%TO.N,Net-(J1-Pad6)*%
X200152000Y-72390000D03*
%TO.P,J1,7*%
%TO.N,Net-(J1-Pad7)*%
X197612000Y-74930000D03*
%TO.P,J1,8*%
%TO.N,Net-(J1-Pad8)*%
X200152000Y-74930000D03*
%TO.P,J1,9*%
%TO.N,GND*%
X197612000Y-77470000D03*
%TO.P,J1,10*%
%TO.N,Net-(J1-Pad10)*%
X200152000Y-77470000D03*
%TO.P,J1,11*%
%TO.N,Net-(J1-Pad11)*%
X197612000Y-80010000D03*
%TO.P,J1,12*%
%TO.N,Net-(J1-Pad12)*%
X200152000Y-80010000D03*
%TO.P,J1,13*%
%TO.N,Net-(J1-Pad13)*%
X197612000Y-82550000D03*
%TO.P,J1,14*%
%TO.N,Net-(J1-Pad14)*%
X200152000Y-82550000D03*
%TO.P,J1,15*%
%TO.N,Net-(J1-Pad15)*%
X197612000Y-85090000D03*
%TO.P,J1,16*%
%TO.N,Net-(J1-Pad16)*%
X200152000Y-85090000D03*
%TO.P,J1,17*%
%TO.N,Net-(J1-Pad17)*%
X197612000Y-87630000D03*
%TO.P,J1,18*%
%TO.N,Net-(J1-Pad18)*%
X200152000Y-87630000D03*
%TO.P,J1,19*%
%TO.N,Net-(J1-Pad19)*%
X197612000Y-90170000D03*
%TO.P,J1,20*%
%TO.N,Net-(J1-Pad20)*%
X200152000Y-90170000D03*
%TO.P,J1,21*%
%TO.N,Net-(J1-Pad21)*%
X197612000Y-92710000D03*
%TO.P,J1,22*%
%TO.N,Net-(J1-Pad22)*%
X200152000Y-92710000D03*
%TO.P,J1,23*%
%TO.N,Net-(J1-Pad23)*%
X197612000Y-95250000D03*
%TO.P,J1,24*%
%TO.N,Net-(J1-Pad24)*%
X200152000Y-95250000D03*
%TO.P,J1,25*%
%TO.N,Net-(J1-Pad25)*%
X197612000Y-97790000D03*
%TO.P,J1,26*%
%TO.N,Net-(J1-Pad26)*%
X200152000Y-97790000D03*
%TO.P,J1,27*%
%TO.N,Net-(J1-Pad27)*%
X197612000Y-100330000D03*
%TO.P,J1,28*%
%TO.N,Net-(J1-Pad28)*%
X200152000Y-100330000D03*
%TO.P,J1,29*%
%TO.N,Net-(J1-Pad29)*%
X197612000Y-102870000D03*
%TO.P,J1,30*%
%TO.N,GND*%
X200152000Y-102870000D03*
%TO.P,J1,31*%
%TO.N,Net-(J1-Pad31)*%
X197612000Y-105410000D03*
%TO.P,J1,32*%
%TO.N,Net-(J1-Pad32)*%
X200152000Y-105410000D03*
%TO.P,J1,33*%
%TO.N,Net-(J1-Pad33)*%
X197612000Y-107950000D03*
%TO.P,J1,34*%
%TO.N,GND*%
X200152000Y-107950000D03*
%TO.P,J1,35*%
%TO.N,Net-(J1-Pad35)*%
X197612000Y-110490000D03*
%TO.P,J1,36*%
%TO.N,Net-(J1-Pad36)*%
X200152000Y-110490000D03*
%TO.P,J1,37*%
%TO.N,Net-(J1-Pad37)*%
X197612000Y-113030000D03*
%TO.P,J1,38*%
%TO.N,Net-(J1-Pad38)*%
X200152000Y-113030000D03*
%TO.P,J1,39*%
%TO.N,GND*%
X197612000Y-115570000D03*
%TO.P,J1,40*%
%TO.N,Net-(J1-Pad40)*%
X200152000Y-115570000D03*
%TD*%
D12*
%TO.P,J2,1*%
%TO.N,VCC*%
X179324000Y-80010000D03*
D13*
%TO.P,J2,2*%
%TO.N,GND*%
X182324000Y-80010000D03*
%TO.P,J2,3*%
%TO.N,Net-(J1-Pad3)*%
X179324000Y-83010000D03*
%TO.P,J2,4*%
%TO.N,Net-(J1-Pad5)*%
X182324000Y-83010000D03*
%TO.P,J2,5*%
%TO.N,GND*%
X179324000Y-86010000D03*
%TO.P,J2,6*%
%TO.N,Net-(J2-Pad6)*%
X182324000Y-86010000D03*
%TO.P,J2,7*%
%TO.N,Net-(J1-Pad1)*%
X179324000Y-89010000D03*
%TO.P,J2,8*%
%TO.N,GND*%
X182324000Y-89010000D03*
%TO.P,J2,9*%
%TO.N,Net-(J1-Pad3)*%
X179324000Y-92010000D03*
%TO.P,J2,10*%
%TO.N,Net-(J1-Pad5)*%
X182324000Y-92010000D03*
%TO.P,J2,11*%
%TO.N,GND*%
X179324000Y-95010000D03*
%TO.P,J2,12*%
%TO.N,Net-(J2-Pad12)*%
X182324000Y-95010000D03*
%TO.P,J2,13*%
%TO.N,Net-(J1-Pad1)*%
X179324000Y-98010000D03*
%TO.P,J2,14*%
%TO.N,GND*%
X182324000Y-98010000D03*
%TO.P,J2,15*%
%TO.N,Net-(J1-Pad3)*%
X179324000Y-101010000D03*
%TO.P,J2,16*%
%TO.N,Net-(J1-Pad5)*%
X182324000Y-101010000D03*
%TD*%
D10*
%TO.P,R1,2*%
%TO.N,Net-(J1-Pad37)*%
X192913000Y-113030000D03*
%TO.P,R1,1*%
%TO.N,Net-(D1-Pad2)*%
X190713000Y-113030000D03*
%TD*%
%TO.P,R2,2*%
%TO.N,Net-(J1-Pad35)*%
X192913000Y-110490000D03*
%TO.P,R2,1*%
%TO.N,Net-(D2-Pad2)*%
X190713000Y-110490000D03*
%TD*%
%TO.P,R3,1*%
%TO.N,Net-(D3-Pad2)*%
X190627000Y-107950000D03*
%TO.P,R3,2*%
%TO.N,Net-(J1-Pad33)*%
X192827000Y-107950000D03*
%TD*%
%TO.P,R4,2*%
%TO.N,Net-(J1-Pad31)*%
X192786000Y-105410000D03*
%TO.P,R4,1*%
%TO.N,Net-(D4-Pad2)*%
X190586000Y-105410000D03*
%TD*%
%TO.P,R5,1*%
%TO.N,Net-(D5-Pad2)*%
X190543000Y-102870000D03*
%TO.P,R5,2*%
%TO.N,Net-(J1-Pad29)*%
X192743000Y-102870000D03*
%TD*%
D14*
%TO.P,GND,1*%
%TO.N,GND*%
X190500000Y-85217000D03*
%TD*%
%TO.P,5V,1*%
%TO.N,VCC*%
X190500000Y-66040000D03*
%TD*%
%TO.P,Pin 5,1*%
%TO.N,Net-(J1-Pad5)*%
X190500000Y-80518000D03*
%TD*%
%TO.P,3.3V,1*%
%TO.N,Net-(J1-Pad1)*%
X190500000Y-70866000D03*
%TD*%
%TO.P,Pin 3,1*%
%TO.N,Net-(J1-Pad3)*%
X190500000Y-75692000D03*
%TD*%
D15*
%TO.N,Net-(J1-Pad1)*%
X181356000Y-72517000D03*
X175133000Y-89027000D03*
X175133000Y-97980500D03*
D16*
%TO.N,GND*%
X183896000Y-102552500D03*
%TD*%
D17*
%TO.N,Net-(J1-Pad1)*%
X190500000Y-70866000D02*
X193040000Y-70866000D01*
X193040000Y-70866000D02*
X194818000Y-69088000D01*
X194818000Y-69088000D02*
X194818000Y-68072000D01*
X195580000Y-67310000D02*
X197612000Y-67310000D01*
X194818000Y-68072000D02*
X195580000Y-67310000D01*
X181356000Y-72517000D02*
X174561500Y-79311500D01*
X174561500Y-79311500D02*
X174561500Y-86233000D01*
X174561500Y-88455500D02*
X175133000Y-89027000D01*
X174561500Y-86233000D02*
X174561500Y-88455500D01*
X175133000Y-89027000D02*
X174625000Y-89535000D01*
X174625000Y-97472500D02*
X175133000Y-97980500D01*
X174625000Y-89535000D02*
X174625000Y-97472500D01*
%TO.N,VCC*%
X200152000Y-67310000D02*
X200152000Y-66675000D01*
D18*
X190505001Y-66034999D02*
X190500000Y-66040000D01*
X198876999Y-66034999D02*
X190505001Y-66034999D01*
X200152000Y-67310000D02*
X198876999Y-66034999D01*
X179439999Y-79894001D02*
X179324000Y-80010000D01*
D17*
%TO.N,Net-(J1-Pad3)*%
X179324000Y-83010000D02*
X179657000Y-83010000D01*
X179709002Y-92010000D02*
X179324000Y-92010000D01*
X179324000Y-101010000D02*
X179914000Y-101010000D01*
X190500000Y-75692000D02*
X193421000Y-75692000D01*
X193421000Y-75692000D02*
X194818000Y-74295000D01*
X194818000Y-74295000D02*
X194818000Y-70612000D01*
X195580000Y-69850000D02*
X197612000Y-69850000D01*
X194818000Y-70612000D02*
X195580000Y-69850000D01*
X179655002Y-92010000D02*
X179324000Y-92010000D01*
X179324000Y-101010000D02*
X179787000Y-101010000D01*
X179640000Y-92010000D02*
X179324000Y-92010000D01*
%TO.N,Net-(J1-Pad5)*%
X182324000Y-83010000D02*
X182039000Y-83010000D01*
X181926000Y-92010000D02*
X182324000Y-92010000D01*
X182324000Y-101010000D02*
X181655000Y-101010000D01*
X190500000Y-80518000D02*
X193802000Y-77216000D01*
X197612000Y-72390000D02*
X195072000Y-74930000D01*
X195072000Y-75946000D02*
X193802000Y-77216000D01*
X195072000Y-74930000D02*
X195072000Y-75946000D01*
X182127610Y-83010000D02*
X182324000Y-83010000D01*
X182071998Y-92010000D02*
X182324000Y-92010000D01*
X182324000Y-101010000D02*
X181845500Y-101010000D01*
%TO.N,GND*%
X190500000Y-85217000D02*
X193294000Y-85217000D01*
X193294000Y-85217000D02*
X194818000Y-83693000D01*
X194818000Y-83693000D02*
X194818000Y-78613000D01*
X194818000Y-78613000D02*
X195961000Y-77470000D01*
X195961000Y-77470000D02*
X197612000Y-77470000D01*
X186014000Y-113030000D02*
X186014000Y-114386000D01*
X187198000Y-115570000D02*
X197612000Y-115570000D01*
X186014000Y-114386000D02*
X187198000Y-115570000D01*
X186014000Y-107950000D02*
X186014000Y-109306000D01*
X186014000Y-109306000D02*
X186014000Y-110490000D01*
X186014000Y-105369000D02*
X186055000Y-105410000D01*
X198841000Y-104181000D02*
X200152000Y-102870000D01*
X186014000Y-104181000D02*
X198841000Y-104181000D01*
X186014000Y-102870000D02*
X186014000Y-104181000D01*
X186014000Y-104181000D02*
X186014000Y-105369000D01*
D18*
X186014000Y-102870000D02*
X184213500Y-102870000D01*
X183896000Y-102552500D02*
X183896000Y-102489000D01*
X184213500Y-102870000D02*
X183896000Y-102552500D01*
D19*
X198901999Y-109200001D02*
X200152000Y-107950000D01*
X197060499Y-109200001D02*
X198901999Y-109200001D01*
X196954500Y-109306000D02*
X197060499Y-109200001D01*
X186014000Y-109306000D02*
X196954500Y-109306000D01*
D17*
%TO.N,Net-(J1-Pad29)*%
X197612000Y-102870000D02*
X192743000Y-102870000D01*
%TO.N,Net-(J1-Pad31)*%
X192786000Y-105410000D02*
X197612000Y-105410000D01*
%TO.N,Net-(J1-Pad33)*%
X197612000Y-107950000D02*
X192827000Y-107950000D01*
%TO.N,Net-(J1-Pad35)*%
X192913000Y-110490000D02*
X197612000Y-110490000D01*
%TO.N,Net-(J1-Pad37)*%
X197612000Y-113030000D02*
X192913000Y-113030000D01*
%TO.N,Net-(D1-Pad2)*%
X190713000Y-113030000D02*
X188214000Y-113030000D01*
%TO.N,Net-(D2-Pad2)*%
X188214000Y-110490000D02*
X190713000Y-110490000D01*
%TO.N,Net-(D3-Pad2)*%
X190627000Y-107950000D02*
X188214000Y-107950000D01*
%TO.N,Net-(D4-Pad2)*%
X188255000Y-105410000D02*
X190586000Y-105410000D01*
%TO.N,Net-(D5-Pad2)*%
X190543000Y-102870000D02*
X188214000Y-102870000D01*
%TD*%
M02*
