%TF.GenerationSoftware,KiCad,Pcbnew,(5.1.10)-1*%
%TF.CreationDate,2021-05-26T15:53:11-05:00*%
%TF.ProjectId,IAQ RPI PCB Rev 1,49415120-5250-4492-9050-434220526576,1*%
%TF.SameCoordinates,Original*%
%TF.FileFunction,Legend,Top*%
%TF.FilePolarity,Positive*%
%FSLAX46Y46*%
G04 Gerber Fmt 4.6, Leading zero omitted, Abs format (unit mm)*
G04 Created by KiCad (PCBNEW (5.1.10)-1) date 2021-05-26 15:53:11*
%MOMM*%
%LPD*%
G01*
G04 APERTURE LIST*
%ADD10C,0.120000*%
%ADD11C,0.200000*%
%ADD12C,0.150000*%
%ADD13C,0.254000*%
G04 APERTURE END LIST*
D10*
%TO.C,D1*%
X185314000Y-112480000D02*
X187914000Y-112480000D01*
X185314000Y-113580000D02*
X187914000Y-113580000D01*
X185314000Y-112480000D02*
X185314000Y-113580000D01*
%TO.C,D2*%
X185314000Y-109940000D02*
X185314000Y-111040000D01*
X185314000Y-111040000D02*
X187914000Y-111040000D01*
X185314000Y-109940000D02*
X187914000Y-109940000D01*
%TO.C,D3*%
X185314000Y-107400000D02*
X187914000Y-107400000D01*
X185314000Y-108500000D02*
X187914000Y-108500000D01*
X185314000Y-107400000D02*
X185314000Y-108500000D01*
%TO.C,D4*%
X185355000Y-104860000D02*
X187955000Y-104860000D01*
X185355000Y-105960000D02*
X187955000Y-105960000D01*
X185355000Y-104860000D02*
X185355000Y-105960000D01*
%TO.C,D5*%
X185314000Y-102320000D02*
X185314000Y-103420000D01*
X185314000Y-103420000D02*
X187914000Y-103420000D01*
X185314000Y-102320000D02*
X187914000Y-102320000D01*
D11*
%TO.C,J2*%
X177194000Y-80010000D02*
X177194000Y-102940000D01*
X177194000Y-102940000D02*
X184254000Y-102940000D01*
X184254000Y-102940000D02*
X184254000Y-77880000D01*
X184254000Y-77880000D02*
X179324000Y-77880000D01*
D10*
%TO.C,R1*%
X191313000Y-112350000D02*
X192313000Y-112350000D01*
X192313000Y-113710000D02*
X191313000Y-113710000D01*
%TO.C,R2*%
X191313000Y-109810000D02*
X192313000Y-109810000D01*
X192313000Y-111170000D02*
X191313000Y-111170000D01*
%TO.C,R3*%
X192227000Y-108630000D02*
X191227000Y-108630000D01*
X191227000Y-107270000D02*
X192227000Y-107270000D01*
%TO.C,R4*%
X191186000Y-104730000D02*
X192186000Y-104730000D01*
X192186000Y-106090000D02*
X191186000Y-106090000D01*
%TO.C,R5*%
X192143000Y-103550000D02*
X191143000Y-103550000D01*
X191143000Y-102190000D02*
X192143000Y-102190000D01*
D12*
%TO.C,GND*%
X191900000Y-85217000D02*
G75*
G03*
X191900000Y-85217000I-1400000J0D01*
G01*
%TO.C,5V*%
X191900000Y-66040000D02*
G75*
G03*
X191900000Y-66040000I-1400000J0D01*
G01*
%TO.C,Pin 5*%
X191900000Y-80518000D02*
G75*
G03*
X191900000Y-80518000I-1400000J0D01*
G01*
%TO.C,3.3V*%
X191900000Y-70866000D02*
G75*
G03*
X191900000Y-70866000I-1400000J0D01*
G01*
%TO.C,Pin 3*%
X191900000Y-75692000D02*
G75*
G03*
X191900000Y-75692000I-1400000J0D01*
G01*
%TO.C,D1*%
X186375904Y-112032380D02*
X186375904Y-111032380D01*
X186614000Y-111032380D01*
X186756857Y-111080000D01*
X186852095Y-111175238D01*
X186899714Y-111270476D01*
X186947333Y-111460952D01*
X186947333Y-111603809D01*
X186899714Y-111794285D01*
X186852095Y-111889523D01*
X186756857Y-111984761D01*
X186614000Y-112032380D01*
X186375904Y-112032380D01*
X187899714Y-112032380D02*
X187328285Y-112032380D01*
X187614000Y-112032380D02*
X187614000Y-111032380D01*
X187518761Y-111175238D01*
X187423523Y-111270476D01*
X187328285Y-111318095D01*
%TO.C,D2*%
X186375904Y-109492380D02*
X186375904Y-108492380D01*
X186614000Y-108492380D01*
X186756857Y-108540000D01*
X186852095Y-108635238D01*
X186899714Y-108730476D01*
X186947333Y-108920952D01*
X186947333Y-109063809D01*
X186899714Y-109254285D01*
X186852095Y-109349523D01*
X186756857Y-109444761D01*
X186614000Y-109492380D01*
X186375904Y-109492380D01*
X187328285Y-108587619D02*
X187375904Y-108540000D01*
X187471142Y-108492380D01*
X187709238Y-108492380D01*
X187804476Y-108540000D01*
X187852095Y-108587619D01*
X187899714Y-108682857D01*
X187899714Y-108778095D01*
X187852095Y-108920952D01*
X187280666Y-109492380D01*
X187899714Y-109492380D01*
%TO.C,D3*%
X186375904Y-106952380D02*
X186375904Y-105952380D01*
X186614000Y-105952380D01*
X186756857Y-106000000D01*
X186852095Y-106095238D01*
X186899714Y-106190476D01*
X186947333Y-106380952D01*
X186947333Y-106523809D01*
X186899714Y-106714285D01*
X186852095Y-106809523D01*
X186756857Y-106904761D01*
X186614000Y-106952380D01*
X186375904Y-106952380D01*
X187280666Y-105952380D02*
X187899714Y-105952380D01*
X187566380Y-106333333D01*
X187709238Y-106333333D01*
X187804476Y-106380952D01*
X187852095Y-106428571D01*
X187899714Y-106523809D01*
X187899714Y-106761904D01*
X187852095Y-106857142D01*
X187804476Y-106904761D01*
X187709238Y-106952380D01*
X187423523Y-106952380D01*
X187328285Y-106904761D01*
X187280666Y-106857142D01*
%TO.C,D4*%
X186416904Y-104412380D02*
X186416904Y-103412380D01*
X186655000Y-103412380D01*
X186797857Y-103460000D01*
X186893095Y-103555238D01*
X186940714Y-103650476D01*
X186988333Y-103840952D01*
X186988333Y-103983809D01*
X186940714Y-104174285D01*
X186893095Y-104269523D01*
X186797857Y-104364761D01*
X186655000Y-104412380D01*
X186416904Y-104412380D01*
X187845476Y-103745714D02*
X187845476Y-104412380D01*
X187607380Y-103364761D02*
X187369285Y-104079047D01*
X187988333Y-104079047D01*
%TO.C,D5*%
X186375904Y-101872380D02*
X186375904Y-100872380D01*
X186614000Y-100872380D01*
X186756857Y-100920000D01*
X186852095Y-101015238D01*
X186899714Y-101110476D01*
X186947333Y-101300952D01*
X186947333Y-101443809D01*
X186899714Y-101634285D01*
X186852095Y-101729523D01*
X186756857Y-101824761D01*
X186614000Y-101872380D01*
X186375904Y-101872380D01*
X187852095Y-100872380D02*
X187375904Y-100872380D01*
X187328285Y-101348571D01*
X187375904Y-101300952D01*
X187471142Y-101253333D01*
X187709238Y-101253333D01*
X187804476Y-101300952D01*
X187852095Y-101348571D01*
X187899714Y-101443809D01*
X187899714Y-101681904D01*
X187852095Y-101777142D01*
X187804476Y-101824761D01*
X187709238Y-101872380D01*
X187471142Y-101872380D01*
X187375904Y-101824761D01*
X187328285Y-101777142D01*
%TO.C,J2*%
D13*
X178628523Y-80433333D02*
X179535666Y-80433333D01*
X179717095Y-80493809D01*
X179838047Y-80614761D01*
X179898523Y-80796190D01*
X179898523Y-80917142D01*
X178749476Y-79889047D02*
X178689000Y-79828571D01*
X178628523Y-79707619D01*
X178628523Y-79405238D01*
X178689000Y-79284285D01*
X178749476Y-79223809D01*
X178870428Y-79163333D01*
X178991380Y-79163333D01*
X179172809Y-79223809D01*
X179898523Y-79949523D01*
X179898523Y-79163333D01*
%TO.C,R1*%
D12*
X191646333Y-112032380D02*
X191313000Y-111556190D01*
X191074904Y-112032380D02*
X191074904Y-111032380D01*
X191455857Y-111032380D01*
X191551095Y-111080000D01*
X191598714Y-111127619D01*
X191646333Y-111222857D01*
X191646333Y-111365714D01*
X191598714Y-111460952D01*
X191551095Y-111508571D01*
X191455857Y-111556190D01*
X191074904Y-111556190D01*
X192598714Y-112032380D02*
X192027285Y-112032380D01*
X192313000Y-112032380D02*
X192313000Y-111032380D01*
X192217761Y-111175238D01*
X192122523Y-111270476D01*
X192027285Y-111318095D01*
%TO.C,R2*%
X191646333Y-109492380D02*
X191313000Y-109016190D01*
X191074904Y-109492380D02*
X191074904Y-108492380D01*
X191455857Y-108492380D01*
X191551095Y-108540000D01*
X191598714Y-108587619D01*
X191646333Y-108682857D01*
X191646333Y-108825714D01*
X191598714Y-108920952D01*
X191551095Y-108968571D01*
X191455857Y-109016190D01*
X191074904Y-109016190D01*
X192027285Y-108587619D02*
X192074904Y-108540000D01*
X192170142Y-108492380D01*
X192408238Y-108492380D01*
X192503476Y-108540000D01*
X192551095Y-108587619D01*
X192598714Y-108682857D01*
X192598714Y-108778095D01*
X192551095Y-108920952D01*
X191979666Y-109492380D01*
X192598714Y-109492380D01*
%TO.C,R3*%
X191560333Y-106952380D02*
X191227000Y-106476190D01*
X190988904Y-106952380D02*
X190988904Y-105952380D01*
X191369857Y-105952380D01*
X191465095Y-106000000D01*
X191512714Y-106047619D01*
X191560333Y-106142857D01*
X191560333Y-106285714D01*
X191512714Y-106380952D01*
X191465095Y-106428571D01*
X191369857Y-106476190D01*
X190988904Y-106476190D01*
X191893666Y-105952380D02*
X192512714Y-105952380D01*
X192179380Y-106333333D01*
X192322238Y-106333333D01*
X192417476Y-106380952D01*
X192465095Y-106428571D01*
X192512714Y-106523809D01*
X192512714Y-106761904D01*
X192465095Y-106857142D01*
X192417476Y-106904761D01*
X192322238Y-106952380D01*
X192036523Y-106952380D01*
X191941285Y-106904761D01*
X191893666Y-106857142D01*
%TO.C,R4*%
X191519333Y-104412380D02*
X191186000Y-103936190D01*
X190947904Y-104412380D02*
X190947904Y-103412380D01*
X191328857Y-103412380D01*
X191424095Y-103460000D01*
X191471714Y-103507619D01*
X191519333Y-103602857D01*
X191519333Y-103745714D01*
X191471714Y-103840952D01*
X191424095Y-103888571D01*
X191328857Y-103936190D01*
X190947904Y-103936190D01*
X192376476Y-103745714D02*
X192376476Y-104412380D01*
X192138380Y-103364761D02*
X191900285Y-104079047D01*
X192519333Y-104079047D01*
%TO.C,R5*%
X191476333Y-101872380D02*
X191143000Y-101396190D01*
X190904904Y-101872380D02*
X190904904Y-100872380D01*
X191285857Y-100872380D01*
X191381095Y-100920000D01*
X191428714Y-100967619D01*
X191476333Y-101062857D01*
X191476333Y-101205714D01*
X191428714Y-101300952D01*
X191381095Y-101348571D01*
X191285857Y-101396190D01*
X190904904Y-101396190D01*
X192381095Y-100872380D02*
X191904904Y-100872380D01*
X191857285Y-101348571D01*
X191904904Y-101300952D01*
X192000142Y-101253333D01*
X192238238Y-101253333D01*
X192333476Y-101300952D01*
X192381095Y-101348571D01*
X192428714Y-101443809D01*
X192428714Y-101681904D01*
X192381095Y-101777142D01*
X192333476Y-101824761D01*
X192238238Y-101872380D01*
X192000142Y-101872380D01*
X191904904Y-101824761D01*
X191857285Y-101777142D01*
%TO.C,GND*%
X192913095Y-84653500D02*
X192817857Y-84605880D01*
X192675000Y-84605880D01*
X192532142Y-84653500D01*
X192436904Y-84748738D01*
X192389285Y-84843976D01*
X192341666Y-85034452D01*
X192341666Y-85177309D01*
X192389285Y-85367785D01*
X192436904Y-85463023D01*
X192532142Y-85558261D01*
X192675000Y-85605880D01*
X192770238Y-85605880D01*
X192913095Y-85558261D01*
X192960714Y-85510642D01*
X192960714Y-85177309D01*
X192770238Y-85177309D01*
X193389285Y-85605880D02*
X193389285Y-84605880D01*
X193960714Y-85605880D01*
X193960714Y-84605880D01*
X194436904Y-85605880D02*
X194436904Y-84605880D01*
X194675000Y-84605880D01*
X194817857Y-84653500D01*
X194913095Y-84748738D01*
X194960714Y-84843976D01*
X195008333Y-85034452D01*
X195008333Y-85177309D01*
X194960714Y-85367785D01*
X194913095Y-85463023D01*
X194817857Y-85558261D01*
X194675000Y-85605880D01*
X194436904Y-85605880D01*
%TO.C,5V*%
X193103523Y-65492380D02*
X192627333Y-65492380D01*
X192579714Y-65968571D01*
X192627333Y-65920952D01*
X192722571Y-65873333D01*
X192960666Y-65873333D01*
X193055904Y-65920952D01*
X193103523Y-65968571D01*
X193151142Y-66063809D01*
X193151142Y-66301904D01*
X193103523Y-66397142D01*
X193055904Y-66444761D01*
X192960666Y-66492380D01*
X192722571Y-66492380D01*
X192627333Y-66444761D01*
X192579714Y-66397142D01*
X193436857Y-65492380D02*
X193770190Y-66492380D01*
X194103523Y-65492380D01*
%TO.C,Pin 5*%
X192309976Y-81033880D02*
X192309976Y-80033880D01*
X192690928Y-80033880D01*
X192786166Y-80081500D01*
X192833785Y-80129119D01*
X192881404Y-80224357D01*
X192881404Y-80367214D01*
X192833785Y-80462452D01*
X192786166Y-80510071D01*
X192690928Y-80557690D01*
X192309976Y-80557690D01*
X193309976Y-81033880D02*
X193309976Y-80367214D01*
X193309976Y-80033880D02*
X193262357Y-80081500D01*
X193309976Y-80129119D01*
X193357595Y-80081500D01*
X193309976Y-80033880D01*
X193309976Y-80129119D01*
X193786166Y-80367214D02*
X193786166Y-81033880D01*
X193786166Y-80462452D02*
X193833785Y-80414833D01*
X193929023Y-80367214D01*
X194071880Y-80367214D01*
X194167119Y-80414833D01*
X194214738Y-80510071D01*
X194214738Y-81033880D01*
X195929023Y-80033880D02*
X195452833Y-80033880D01*
X195405214Y-80510071D01*
X195452833Y-80462452D01*
X195548071Y-80414833D01*
X195786166Y-80414833D01*
X195881404Y-80462452D01*
X195929023Y-80510071D01*
X195976642Y-80605309D01*
X195976642Y-80843404D01*
X195929023Y-80938642D01*
X195881404Y-80986261D01*
X195786166Y-81033880D01*
X195548071Y-81033880D01*
X195452833Y-80986261D01*
X195405214Y-80938642D01*
%TO.C,3.3V*%
X192389309Y-70381880D02*
X193008357Y-70381880D01*
X192675023Y-70762833D01*
X192817880Y-70762833D01*
X192913119Y-70810452D01*
X192960738Y-70858071D01*
X193008357Y-70953309D01*
X193008357Y-71191404D01*
X192960738Y-71286642D01*
X192913119Y-71334261D01*
X192817880Y-71381880D01*
X192532166Y-71381880D01*
X192436928Y-71334261D01*
X192389309Y-71286642D01*
X193436928Y-71286642D02*
X193484547Y-71334261D01*
X193436928Y-71381880D01*
X193389309Y-71334261D01*
X193436928Y-71286642D01*
X193436928Y-71381880D01*
X193817880Y-70381880D02*
X194436928Y-70381880D01*
X194103595Y-70762833D01*
X194246452Y-70762833D01*
X194341690Y-70810452D01*
X194389309Y-70858071D01*
X194436928Y-70953309D01*
X194436928Y-71191404D01*
X194389309Y-71286642D01*
X194341690Y-71334261D01*
X194246452Y-71381880D01*
X193960738Y-71381880D01*
X193865500Y-71334261D01*
X193817880Y-71286642D01*
X194722642Y-70381880D02*
X195055976Y-71381880D01*
X195389309Y-70381880D01*
%TO.C,Pin 3*%
X192373476Y-76144380D02*
X192373476Y-75144380D01*
X192754428Y-75144380D01*
X192849666Y-75192000D01*
X192897285Y-75239619D01*
X192944904Y-75334857D01*
X192944904Y-75477714D01*
X192897285Y-75572952D01*
X192849666Y-75620571D01*
X192754428Y-75668190D01*
X192373476Y-75668190D01*
X193373476Y-76144380D02*
X193373476Y-75477714D01*
X193373476Y-75144380D02*
X193325857Y-75192000D01*
X193373476Y-75239619D01*
X193421095Y-75192000D01*
X193373476Y-75144380D01*
X193373476Y-75239619D01*
X193849666Y-75477714D02*
X193849666Y-76144380D01*
X193849666Y-75572952D02*
X193897285Y-75525333D01*
X193992523Y-75477714D01*
X194135380Y-75477714D01*
X194230619Y-75525333D01*
X194278238Y-75620571D01*
X194278238Y-76144380D01*
X195421095Y-75144380D02*
X196040142Y-75144380D01*
X195706809Y-75525333D01*
X195849666Y-75525333D01*
X195944904Y-75572952D01*
X195992523Y-75620571D01*
X196040142Y-75715809D01*
X196040142Y-75953904D01*
X195992523Y-76049142D01*
X195944904Y-76096761D01*
X195849666Y-76144380D01*
X195563952Y-76144380D01*
X195468714Y-76096761D01*
X195421095Y-76049142D01*
%TD*%
M02*
